<mxfile host="app.diagrams.net" modified="2023-10-16T15:47:28.555Z" agent="Mozilla/5.0 (Macintosh; Intel Mac OS X 10_15_7) AppleWebKit/537.36 (KHTML, like Gecko) Chrome/117.0.0.0 Safari/537.36 Edg/117.0.2045.55" etag="kB64Blopcxuv6rZcN_fR" version="22.0.4" type="github">
  <diagram name="Page-1" id="sZqvYCTMjK3eDDxyS9h0">
    <mxGraphModel dx="1307" dy="783" grid="1" gridSize="10" guides="1" tooltips="1" connect="1" arrows="1" fold="1" page="1" pageScale="1" pageWidth="850" pageHeight="1100" math="0" shadow="0">
      <root>
        <mxCell id="0" />
        <mxCell id="1" parent="0" />
        <mxCell id="BlpGp2kamUYAcFGAES9f-1" value="" style="sketch=0;aspect=fixed;pointerEvents=1;shadow=0;dashed=0;html=1;strokeColor=none;labelPosition=center;verticalLabelPosition=bottom;verticalAlign=top;align=center;fillColor=#00188D;shape=mxgraph.azure.user" vertex="1" parent="1">
          <mxGeometry x="30" y="210" width="47" height="50" as="geometry" />
        </mxCell>
        <mxCell id="BlpGp2kamUYAcFGAES9f-6" style="edgeStyle=orthogonalEdgeStyle;rounded=0;orthogonalLoop=1;jettySize=auto;html=1;entryX=0;entryY=0.5;entryDx=0;entryDy=0;" edge="1" parent="1" source="BlpGp2kamUYAcFGAES9f-2" target="BlpGp2kamUYAcFGAES9f-5">
          <mxGeometry relative="1" as="geometry" />
        </mxCell>
        <mxCell id="BlpGp2kamUYAcFGAES9f-12" style="edgeStyle=orthogonalEdgeStyle;rounded=0;orthogonalLoop=1;jettySize=auto;html=1;entryX=0;entryY=0.5;entryDx=0;entryDy=0;" edge="1" parent="1" source="BlpGp2kamUYAcFGAES9f-2" target="BlpGp2kamUYAcFGAES9f-10">
          <mxGeometry relative="1" as="geometry">
            <mxPoint x="250" y="250" as="sourcePoint" />
          </mxGeometry>
        </mxCell>
        <mxCell id="BlpGp2kamUYAcFGAES9f-2" value="" style="outlineConnect=0;dashed=0;verticalLabelPosition=bottom;verticalAlign=top;align=center;html=1;shape=mxgraph.aws3.classic_load_balancer;fillColor=#7BCCF5;gradientColor=none;" vertex="1" parent="1">
          <mxGeometry x="180" y="199" width="69" height="72" as="geometry" />
        </mxCell>
        <mxCell id="BlpGp2kamUYAcFGAES9f-3" style="edgeStyle=orthogonalEdgeStyle;rounded=0;orthogonalLoop=1;jettySize=auto;html=1;entryX=0;entryY=0.5;entryDx=0;entryDy=0;entryPerimeter=0;" edge="1" parent="1" source="BlpGp2kamUYAcFGAES9f-1" target="BlpGp2kamUYAcFGAES9f-2">
          <mxGeometry relative="1" as="geometry" />
        </mxCell>
        <mxCell id="BlpGp2kamUYAcFGAES9f-5" value="&lt;p style=&quot;line-height: 90%;&quot;&gt;&lt;br&gt;&lt;/p&gt;" style="rounded=0;whiteSpace=wrap;html=1;fillColor=#d5e8d4;align=left;strokeColor=#82b366;" vertex="1" parent="1">
          <mxGeometry x="410" y="80" width="280" height="210" as="geometry" />
        </mxCell>
        <mxCell id="BlpGp2kamUYAcFGAES9f-7" value="&lt;font style=&quot;font-size: 15px;&quot;&gt;&quot;green&quot; target group&lt;/font&gt;" style="text;strokeColor=none;fillColor=none;html=1;fontSize=15;fontStyle=1;verticalAlign=middle;align=center;" vertex="1" parent="1">
          <mxGeometry x="440" y="70" width="100" height="40" as="geometry" />
        </mxCell>
        <mxCell id="BlpGp2kamUYAcFGAES9f-9" value="Auto Scaling group" style="points=[[0,0],[0.25,0],[0.5,0],[0.75,0],[1,0],[1,0.25],[1,0.5],[1,0.75],[1,1],[0.75,1],[0.5,1],[0.25,1],[0,1],[0,0.75],[0,0.5],[0,0.25]];outlineConnect=0;gradientColor=none;html=1;whiteSpace=wrap;fontSize=12;fontStyle=0;container=1;pointerEvents=0;collapsible=0;recursiveResize=0;shape=mxgraph.aws4.groupCenter;grIcon=mxgraph.aws4.group_auto_scaling_group;grStroke=1;strokeColor=#D86613;fillColor=none;verticalAlign=top;align=center;fontColor=#D86613;dashed=1;spacingTop=25;" vertex="1" parent="1">
          <mxGeometry x="420" y="99" width="260" height="181" as="geometry" />
        </mxCell>
        <mxCell id="BlpGp2kamUYAcFGAES9f-15" value="nginx" style="points=[[0,0],[0.25,0],[0.5,0],[0.75,0],[1,0],[1,0.25],[1,0.5],[1,0.75],[1,1],[0.75,1],[0.5,1],[0.25,1],[0,1],[0,0.75],[0,0.5],[0,0.25]];outlineConnect=0;gradientColor=none;html=1;whiteSpace=wrap;fontSize=12;fontStyle=0;container=1;pointerEvents=0;collapsible=0;recursiveResize=0;shape=mxgraph.aws4.group;grIcon=mxgraph.aws4.group_ec2_instance_contents;strokeColor=#D86613;fillColor=none;verticalAlign=top;align=left;spacingLeft=30;fontColor=#D86613;dashed=0;" vertex="1" parent="BlpGp2kamUYAcFGAES9f-9">
          <mxGeometry x="10" y="79" width="70" height="81" as="geometry" />
        </mxCell>
        <mxCell id="BlpGp2kamUYAcFGAES9f-16" value="" style="shape=image;html=1;verticalAlign=top;verticalLabelPosition=bottom;labelBackgroundColor=#ffffff;imageAspect=0;aspect=fixed;image=https://cdn0.iconfinder.com/data/icons/phosphor-thin-vol-1/256/angular-logo-thin-128.png" vertex="1" parent="BlpGp2kamUYAcFGAES9f-15">
          <mxGeometry x="17.5" y="31" width="35" height="35" as="geometry" />
        </mxCell>
        <mxCell id="BlpGp2kamUYAcFGAES9f-10" value="&lt;p style=&quot;line-height: 90%;&quot;&gt;&lt;br&gt;&lt;/p&gt;" style="rounded=0;whiteSpace=wrap;html=1;fillColor=#dae8fc;align=left;strokeColor=#6c8ebf;" vertex="1" parent="1">
          <mxGeometry x="410" y="300" width="280" height="201" as="geometry" />
        </mxCell>
        <mxCell id="BlpGp2kamUYAcFGAES9f-11" value="Auto Scaling group" style="points=[[0,0],[0.25,0],[0.5,0],[0.75,0],[1,0],[1,0.25],[1,0.5],[1,0.75],[1,1],[0.75,1],[0.5,1],[0.25,1],[0,1],[0,0.75],[0,0.5],[0,0.25]];outlineConnect=0;gradientColor=none;html=1;whiteSpace=wrap;fontSize=12;fontStyle=0;container=1;pointerEvents=0;collapsible=0;recursiveResize=0;shape=mxgraph.aws4.groupCenter;grIcon=mxgraph.aws4.group_auto_scaling_group;grStroke=1;strokeColor=#D86613;fillColor=none;verticalAlign=top;align=center;fontColor=#D86613;dashed=1;spacingTop=25;" vertex="1" parent="1">
          <mxGeometry x="420" y="321" width="260" height="170" as="geometry" />
        </mxCell>
        <mxCell id="BlpGp2kamUYAcFGAES9f-14" value="&lt;font style=&quot;font-size: 15px;&quot;&gt;&quot;blue&quot; target group&lt;/font&gt;" style="text;strokeColor=none;fillColor=none;html=1;fontSize=15;fontStyle=1;verticalAlign=middle;align=center;" vertex="1" parent="1">
          <mxGeometry x="440" y="290" width="100" height="40" as="geometry" />
        </mxCell>
        <mxCell id="BlpGp2kamUYAcFGAES9f-20" value="nginx" style="points=[[0,0],[0.25,0],[0.5,0],[0.75,0],[1,0],[1,0.25],[1,0.5],[1,0.75],[1,1],[0.75,1],[0.5,1],[0.25,1],[0,1],[0,0.75],[0,0.5],[0,0.25]];outlineConnect=0;gradientColor=none;html=1;whiteSpace=wrap;fontSize=12;fontStyle=0;container=1;pointerEvents=0;collapsible=0;recursiveResize=0;shape=mxgraph.aws4.group;grIcon=mxgraph.aws4.group_ec2_instance_contents;strokeColor=#D86613;fillColor=none;verticalAlign=top;align=left;spacingLeft=30;fontColor=#D86613;dashed=0;" vertex="1" parent="1">
          <mxGeometry x="515" y="179" width="70" height="81" as="geometry" />
        </mxCell>
        <mxCell id="BlpGp2kamUYAcFGAES9f-21" value="" style="shape=image;html=1;verticalAlign=top;verticalLabelPosition=bottom;labelBackgroundColor=#ffffff;imageAspect=0;aspect=fixed;image=https://cdn0.iconfinder.com/data/icons/phosphor-thin-vol-1/256/angular-logo-thin-128.png" vertex="1" parent="BlpGp2kamUYAcFGAES9f-20">
          <mxGeometry x="17.5" y="31" width="35" height="35" as="geometry" />
        </mxCell>
        <mxCell id="BlpGp2kamUYAcFGAES9f-22" value="nginx" style="points=[[0,0],[0.25,0],[0.5,0],[0.75,0],[1,0],[1,0.25],[1,0.5],[1,0.75],[1,1],[0.75,1],[0.5,1],[0.25,1],[0,1],[0,0.75],[0,0.5],[0,0.25]];outlineConnect=0;gradientColor=none;html=1;whiteSpace=wrap;fontSize=12;fontStyle=0;container=1;pointerEvents=0;collapsible=0;recursiveResize=0;shape=mxgraph.aws4.group;grIcon=mxgraph.aws4.group_ec2_instance_contents;strokeColor=#D86613;fillColor=none;verticalAlign=top;align=left;spacingLeft=30;fontColor=#D86613;dashed=0;" vertex="1" parent="1">
          <mxGeometry x="600" y="179" width="70" height="81" as="geometry" />
        </mxCell>
        <mxCell id="BlpGp2kamUYAcFGAES9f-23" value="" style="shape=image;html=1;verticalAlign=top;verticalLabelPosition=bottom;labelBackgroundColor=#ffffff;imageAspect=0;aspect=fixed;image=https://cdn0.iconfinder.com/data/icons/phosphor-thin-vol-1/256/angular-logo-thin-128.png" vertex="1" parent="BlpGp2kamUYAcFGAES9f-22">
          <mxGeometry x="17.5" y="31" width="35" height="35" as="geometry" />
        </mxCell>
        <mxCell id="BlpGp2kamUYAcFGAES9f-43" value="nginx" style="points=[[0,0],[0.25,0],[0.5,0],[0.75,0],[1,0],[1,0.25],[1,0.5],[1,0.75],[1,1],[0.75,1],[0.5,1],[0.25,1],[0,1],[0,0.75],[0,0.5],[0,0.25]];outlineConnect=0;gradientColor=none;html=1;whiteSpace=wrap;fontSize=12;fontStyle=0;container=1;pointerEvents=0;collapsible=0;recursiveResize=0;shape=mxgraph.aws4.group;grIcon=mxgraph.aws4.group_ec2_instance_contents;strokeColor=#D86613;fillColor=none;verticalAlign=top;align=left;spacingLeft=30;fontColor=#D86613;dashed=0;" vertex="1" parent="1">
          <mxGeometry x="430" y="390" width="70" height="81" as="geometry" />
        </mxCell>
        <mxCell id="BlpGp2kamUYAcFGAES9f-44" value="" style="shape=image;html=1;verticalAlign=top;verticalLabelPosition=bottom;labelBackgroundColor=#ffffff;imageAspect=0;aspect=fixed;image=https://cdn0.iconfinder.com/data/icons/phosphor-thin-vol-1/256/angular-logo-thin-128.png" vertex="1" parent="BlpGp2kamUYAcFGAES9f-43">
          <mxGeometry x="17.5" y="31" width="35" height="35" as="geometry" />
        </mxCell>
        <mxCell id="BlpGp2kamUYAcFGAES9f-45" value="nginx" style="points=[[0,0],[0.25,0],[0.5,0],[0.75,0],[1,0],[1,0.25],[1,0.5],[1,0.75],[1,1],[0.75,1],[0.5,1],[0.25,1],[0,1],[0,0.75],[0,0.5],[0,0.25]];outlineConnect=0;gradientColor=none;html=1;whiteSpace=wrap;fontSize=12;fontStyle=0;container=1;pointerEvents=0;collapsible=0;recursiveResize=0;shape=mxgraph.aws4.group;grIcon=mxgraph.aws4.group_ec2_instance_contents;strokeColor=#D86613;fillColor=none;verticalAlign=top;align=left;spacingLeft=30;fontColor=#D86613;dashed=0;" vertex="1" parent="1">
          <mxGeometry x="515" y="390" width="70" height="81" as="geometry" />
        </mxCell>
        <mxCell id="BlpGp2kamUYAcFGAES9f-46" value="" style="shape=image;html=1;verticalAlign=top;verticalLabelPosition=bottom;labelBackgroundColor=#ffffff;imageAspect=0;aspect=fixed;image=https://cdn0.iconfinder.com/data/icons/phosphor-thin-vol-1/256/angular-logo-thin-128.png" vertex="1" parent="BlpGp2kamUYAcFGAES9f-45">
          <mxGeometry x="17.5" y="31" width="35" height="35" as="geometry" />
        </mxCell>
        <mxCell id="BlpGp2kamUYAcFGAES9f-47" value="nginx" style="points=[[0,0],[0.25,0],[0.5,0],[0.75,0],[1,0],[1,0.25],[1,0.5],[1,0.75],[1,1],[0.75,1],[0.5,1],[0.25,1],[0,1],[0,0.75],[0,0.5],[0,0.25]];outlineConnect=0;gradientColor=none;html=1;whiteSpace=wrap;fontSize=12;fontStyle=0;container=1;pointerEvents=0;collapsible=0;recursiveResize=0;shape=mxgraph.aws4.group;grIcon=mxgraph.aws4.group_ec2_instance_contents;strokeColor=#D86613;fillColor=none;verticalAlign=top;align=left;spacingLeft=30;fontColor=#D86613;dashed=0;" vertex="1" parent="1">
          <mxGeometry x="600" y="390" width="70" height="81" as="geometry" />
        </mxCell>
        <mxCell id="BlpGp2kamUYAcFGAES9f-48" value="" style="shape=image;html=1;verticalAlign=top;verticalLabelPosition=bottom;labelBackgroundColor=#ffffff;imageAspect=0;aspect=fixed;image=https://cdn0.iconfinder.com/data/icons/phosphor-thin-vol-1/256/angular-logo-thin-128.png" vertex="1" parent="BlpGp2kamUYAcFGAES9f-47">
          <mxGeometry x="17.5" y="31" width="35" height="35" as="geometry" />
        </mxCell>
        <mxCell id="BlpGp2kamUYAcFGAES9f-57" style="edgeStyle=orthogonalEdgeStyle;rounded=0;orthogonalLoop=1;jettySize=auto;html=1;" edge="1" parent="1" source="BlpGp2kamUYAcFGAES9f-54" target="BlpGp2kamUYAcFGAES9f-56">
          <mxGeometry relative="1" as="geometry" />
        </mxCell>
        <mxCell id="BlpGp2kamUYAcFGAES9f-54" value="" style="sketch=0;points=[[0,0,0],[0.25,0,0],[0.5,0,0],[0.75,0,0],[1,0,0],[0,1,0],[0.25,1,0],[0.5,1,0],[0.75,1,0],[1,1,0],[0,0.25,0],[0,0.5,0],[0,0.75,0],[1,0.25,0],[1,0.5,0],[1,0.75,0]];outlineConnect=0;fontColor=#232F3E;fillColor=#E7157B;strokeColor=#ffffff;dashed=0;verticalLabelPosition=bottom;verticalAlign=top;align=center;html=1;fontSize=12;fontStyle=0;aspect=fixed;shape=mxgraph.aws4.resourceIcon;resIcon=mxgraph.aws4.api_gateway;" vertex="1" parent="1">
          <mxGeometry x="820" y="260" width="78" height="78" as="geometry" />
        </mxCell>
        <mxCell id="BlpGp2kamUYAcFGAES9f-55" style="edgeStyle=orthogonalEdgeStyle;rounded=0;orthogonalLoop=1;jettySize=auto;html=1;entryX=0;entryY=0.5;entryDx=0;entryDy=0;entryPerimeter=0;" edge="1" parent="1" source="BlpGp2kamUYAcFGAES9f-5" target="BlpGp2kamUYAcFGAES9f-54">
          <mxGeometry relative="1" as="geometry" />
        </mxCell>
        <mxCell id="BlpGp2kamUYAcFGAES9f-61" value="" style="edgeStyle=orthogonalEdgeStyle;rounded=0;orthogonalLoop=1;jettySize=auto;html=1;" edge="1" parent="1" source="BlpGp2kamUYAcFGAES9f-56" target="BlpGp2kamUYAcFGAES9f-59">
          <mxGeometry relative="1" as="geometry" />
        </mxCell>
        <mxCell id="BlpGp2kamUYAcFGAES9f-56" value="" style="sketch=0;outlineConnect=0;fontColor=#232F3E;gradientColor=none;fillColor=#ED7100;strokeColor=none;dashed=0;verticalLabelPosition=bottom;verticalAlign=top;align=center;html=1;fontSize=12;fontStyle=0;aspect=fixed;pointerEvents=1;shape=mxgraph.aws4.lambda_function;" vertex="1" parent="1">
          <mxGeometry x="1000" y="269.5" width="59" height="59" as="geometry" />
        </mxCell>
        <mxCell id="BlpGp2kamUYAcFGAES9f-59" value="" style="sketch=0;outlineConnect=0;fontColor=#232F3E;gradientColor=none;fillColor=#C925D1;strokeColor=none;dashed=0;verticalLabelPosition=bottom;verticalAlign=top;align=center;html=1;fontSize=12;fontStyle=0;aspect=fixed;pointerEvents=1;shape=mxgraph.aws4.rds_instance;" vertex="1" parent="1">
          <mxGeometry x="1170" y="260" width="78" height="78" as="geometry" />
        </mxCell>
      </root>
    </mxGraphModel>
  </diagram>
</mxfile>
